<mxfile host="app.diagrams.net" modified="2024-08-02T11:15:09.568Z" agent="Mozilla/5.0 (X11; Linux x86_64) AppleWebKit/537.36 (KHTML, like Gecko) Chrome/127.0.0.0 Safari/537.36" etag="Nxm7z3kgdVnzyQAMUQZg" version="24.4.9" type="google">
  <diagram name="Page-1" id="SW9C22wM90BE_j-5nWLD">
    <mxGraphModel grid="1" page="1" gridSize="10" guides="1" tooltips="1" connect="1" arrows="1" fold="1" pageScale="1" pageWidth="827" pageHeight="1169" math="0" shadow="0">
      <root>
        <mxCell id="0" />
        <mxCell id="1" parent="0" />
        <mxCell id="QDAO-aXP5R5pXlkedr0r-10" value="Host" style="swimlane;startSize=20;horizontal=1;containerType=tree;" vertex="1" parent="1">
          <mxGeometry x="40" y="120" width="200" height="160" as="geometry" />
        </mxCell>
        <mxCell id="QDAO-aXP5R5pXlkedr0r-12" value="Application" style="whiteSpace=wrap;html=1;treeFolding=1;treeMoving=1;newEdgeStyle={&quot;edgeStyle&quot;:&quot;elbowEdgeStyle&quot;,&quot;startArrow&quot;:&quot;none&quot;,&quot;endArrow&quot;:&quot;none&quot;};" vertex="1" parent="QDAO-aXP5R5pXlkedr0r-10">
          <mxGeometry x="40" y="70" width="120" height="40" as="geometry" />
        </mxCell>
        <mxCell id="QDAO-aXP5R5pXlkedr0r-16" value="Registry" style="swimlane;startSize=20;horizontal=1;containerType=tree;" vertex="1" parent="1">
          <mxGeometry x="280" y="120" width="200" height="160" as="geometry">
            <mxRectangle x="280" y="40" width="80" height="30" as="alternateBounds" />
          </mxGeometry>
        </mxCell>
        <mxCell id="QDAO-aXP5R5pXlkedr0r-17" value="Docker registry" style="whiteSpace=wrap;html=1;treeFolding=1;treeMoving=1;newEdgeStyle={&quot;edgeStyle&quot;:&quot;elbowEdgeStyle&quot;,&quot;startArrow&quot;:&quot;none&quot;,&quot;endArrow&quot;:&quot;none&quot;};" vertex="1" parent="QDAO-aXP5R5pXlkedr0r-16">
          <mxGeometry x="40" y="70" width="120" height="40" as="geometry" />
        </mxCell>
        <mxCell id="QDAO-aXP5R5pXlkedr0r-23" value="Staging" style="swimlane;startSize=20;horizontal=1;containerType=tree;" vertex="1" parent="1">
          <mxGeometry x="520" y="120" width="200" height="160" as="geometry" />
        </mxCell>
        <mxCell id="QDAO-aXP5R5pXlkedr0r-24" value="" style="edgeStyle=elbowEdgeStyle;elbow=vertical;sourcePerimeterSpacing=0;targetPerimeterSpacing=0;startArrow=none;endArrow=none;rounded=0;curved=0;" edge="1" parent="QDAO-aXP5R5pXlkedr0r-23" source="QDAO-aXP5R5pXlkedr0r-25" target="QDAO-aXP5R5pXlkedr0r-26">
          <mxGeometry relative="1" as="geometry" />
        </mxCell>
        <mxCell id="QDAO-aXP5R5pXlkedr0r-25" value="Build" style="whiteSpace=wrap;html=1;treeFolding=1;treeMoving=1;newEdgeStyle={&quot;edgeStyle&quot;:&quot;elbowEdgeStyle&quot;,&quot;startArrow&quot;:&quot;none&quot;,&quot;endArrow&quot;:&quot;none&quot;};" vertex="1" parent="QDAO-aXP5R5pXlkedr0r-23">
          <mxGeometry x="40" y="40" width="120" height="40" as="geometry" />
        </mxCell>
        <mxCell id="QDAO-aXP5R5pXlkedr0r-26" value="Test" style="whiteSpace=wrap;html=1;treeFolding=1;treeMoving=1;newEdgeStyle={&quot;edgeStyle&quot;:&quot;elbowEdgeStyle&quot;,&quot;startArrow&quot;:&quot;none&quot;,&quot;endArrow&quot;:&quot;none&quot;};" vertex="1" parent="QDAO-aXP5R5pXlkedr0r-23">
          <mxGeometry x="40" y="100" width="120" height="40" as="geometry" />
        </mxCell>
      </root>
    </mxGraphModel>
  </diagram>
</mxfile>
